<?xml version="1.0" encoding="utf-8"?>
<!-- Generator: Adobe Illustrator 21.0.0, SVG Export Plug-In . SVG Version: 6.00 Build 0)  -->
<svg version="1.1" id="图层_1" xmlns="http://www.w3.org/2000/svg" xmlns:xlink="http://www.w3.org/1999/xlink" x="0px" y="0px"
	 viewBox="0 0 512 512" style="enable-background:new 0 0 512 512;" xml:space="preserve">
<style type="text/css">
	.st0{fill:none;stroke:#00C0DB;stroke-width:35;stroke-miterlimit:10;}
	.st1{fill:#00B9CD;stroke:#00B9CD;stroke-width:8;stroke-miterlimit:10;}
</style>
<g>
	<image style="overflow:visible;" width="549" height="550" xlink:href="1A3332DA.png"  transform="matrix(1 0 0 1 -10 -11)">
	</image>
</g>
<title>画板 1</title>
<rect x="33.8" y="33.8" class="st0" width="444.5" height="444.5"/>
<g>
	<path class="st1" d="M103.1,348.8c15.6,9.6,38.5,17.6,62.5,17.6c35.7,0,56.5-18.8,56.5-46.1c0-25.3-14.4-39.7-50.9-53.7
		c-44.1-15.6-71.4-38.5-71.4-76.6c0-42.1,34.9-73.4,87.4-73.4c27.7,0,47.7,6.4,59.7,13.2l-9.6,28.5c-8.8-4.8-26.9-12.8-51.3-12.8
		c-36.9,0-50.9,22-50.9,40.5c0,25.3,16.4,37.7,53.7,52.1c45.7,17.6,68.9,39.7,68.9,79.4c0,41.7-30.9,77.8-94.6,77.8
		c-26.1,0-54.5-7.6-68.9-17.2L103.1,348.8z"/>
	<path class="st1" d="M299.5,355.2c10.4,6.8,28.9,14,46.5,14c25.7,0,37.7-12.8,37.7-28.9c0-16.8-10-26.1-36.1-35.7
		c-34.9-12.4-51.3-31.7-51.3-54.9c0-31.3,25.3-56.9,66.9-56.9c19.6,0,36.9,5.6,47.7,12l-8.8,25.7c-7.6-4.8-21.6-11.2-39.7-11.2
		c-20.8,0-32.5,12-32.5,26.5c0,16,11.6,23.3,36.9,32.9c33.7,12.8,50.9,29.7,50.9,58.5c0,34.1-26.5,58.1-72.6,58.1
		c-21.2,0-40.9-5.2-54.5-13.2L299.5,355.2z"/>
</g>
</svg>
